<?xml version="1.0" encoding="utf-8"?>
<!-- Generator: Adobe Illustrator 21.0.2, SVG Export Plug-In . SVG Version: 6.00 Build 0)  -->
<svg version="1.1" id="Laag_1" xmlns="http://www.w3.org/2000/svg" xmlns:xlink="http://www.w3.org/1999/xlink" x="0px" y="0px"
	 viewBox="0 0 176 200" style="enable-background:new 0 0 176 200;" xml:space="preserve">
<style type="text/css">
	.st0{fill:#333333;}
	.st1{fill:#FFFFFF;}
</style>
<rect class="st0" width="176" height="200"/>
<g>
	<path class="st1" d="M69,71.9V42.1c0-2.8-2.2-5-5-5H43c-2.8,0-5,2.2-5,5v49.7c0,1.3,0.9,2.5,2.2,2.9l64.6,29.8
		c1.3,0.4,2.2,1.5,2.2,2.9v29.7c0,2.8,2.2,5,5,5h21c2.8,0,5-2.2,5-5v-49.7c0-1.3-0.9-2.5-2.2-2.9L71.2,74.7
		C69.9,74.4,69,73.2,69,71.9z"/>
	<path class="st1" d="M41.3,134L67,145.3c1.2,0.4,2,1.7,2,3.3v11c0,1.8-1.2,3.3-2.6,3.3H40.6c-1.5,0-2.6-1.5-2.6-3.3v-22.3
		C38,135.1,39.6,133.5,41.3,134z"/>
	<path class="st1" d="M134.7,66.5L109,55.2c-1.2-0.4-2-1.7-2-3.3V41c0-1.8,1.2-3.3,2.6-3.3h25.7c1.5,0,2.6,1.5,2.6,3.3v22.3
		C138,65.4,136.4,67,134.7,66.5z"/>
</g>
</svg>
